STARTFONT 2.1
FONT -Adobe-Helvetica-Medium-O-Normal--18-180-75-75-P-98-ISO8859-2
SIZE 18 75 75
FONTBOUNDINGBOX 23 22 -2 -5
COMMENT $XConsortium: helvO18.bdf,v 1.14 95/01/26 18:02:39 gildea Exp $
COMMENT 
COMMENT +
COMMENT  Copyright 1984-1989, 1994 Adobe Systems Incorporated.
COMMENT  Copyright 1988, 1994 Digital Equipment Corporation.
COMMENT
COMMENT  Adobe is a trademark of Adobe Systems Incorporated which may be
COMMENT  registered in certain jurisdictions.
COMMENT  Permission to use these trademarks is hereby granted only in
COMMENT  association with the images described in this file.
COMMENT
COMMENT  Permission to use, copy, modify, distribute and sell this software
COMMENT  and its documentation for any purpose and without fee is hereby
COMMENT  granted, provided that the above copyright notices appear in all
COMMENT  copies and that both those copyright notices and this permission
COMMENT  notice appear in supporting documentation, and that the names of
COMMENT  Adobe Systems and Digital Equipment Corporation not be used in
COMMENT  advertising or publicity pertaining to distribution of the software
COMMENT  without specific, written prior permission.  Adobe Systems and
COMMENT  Digital Equipment Corporation make no representations about the
COMMENT  suitability of this software for any purpose.  It is provided "as
COMMENT  is" without express or implied warranty.
COMMENT -
COMMENT  
COMMENT  Translation to ISO8859-2 by Cub Soft;  Petr.Kolar@vslib.cz
COMMENT  
STARTPROPERTIES 28
FOUNDRY "Adobe"
FAMILY_NAME "Helvetica"
WEIGHT_NAME "Medium"
SLANT "O"
SETWIDTH_NAME "Normal"
ADD_STYLE_NAME ""
PIXEL_SIZE 18
POINT_SIZE 180
RESOLUTION_X 75
RESOLUTION_Y 75
SPACING "P"
AVERAGE_WIDTH 98
CHARSET_REGISTRY "ISO8859"
CHARSET_ENCODING "2"
CAP_HEIGHT 14
X_HEIGHT 10
FONT_ASCENT 16
FONT_DESCENT 5
FACE_NAME "Helvetica Oblique"

STARTCHAR space
ENCODING 32
SWIDTH 278 0
DWIDTH 5 0
BBX 1 1 0 0
BITMAP
00
ENDCHAR
STARTCHAR exclam
ENCODING 33
SWIDTH 278 0
DWIDTH 5 0
BBX 5 14 2 0
BITMAP
18
18
18
30
30
30
30
60
60
60
00
00
c0
c0
ENDCHAR
STARTCHAR quotedbl
ENCODING 34
SWIDTH 355 0
DWIDTH 7 0
BBX 6 4 3 10
BITMAP
6c
6c
d8
90
ENDCHAR
STARTCHAR numbersign
ENCODING 35
SWIDTH 556 0
DWIDTH 11 0
BBX 11 13 1 0
BITMAP
0240
06c0
0480
3fe0
3fe0
0900
1b00
1200
ff80
ff80
2400
6c00
4800
ENDCHAR
STARTCHAR dollar
ENCODING 36
SWIDTH 556 0
DWIDTH 10 0
BBX 10 15 1 -1
BITMAP
0200
1f00
3f80
64c0
64c0
7400
3c00
0f00
0b80
0980
c980
cb80
ff00
7e00
1000
ENDCHAR
STARTCHAR percent
ENCODING 37
SWIDTH 889 0
DWIDTH 16 0
BBX 12 13 3 0
BITMAP
3830
6c60
c4c0
8c80
d980
7300
0600
0ce0
09b0
1b10
3230
6360
c1c0
ENDCHAR
STARTCHAR ampersand
ENCODING 38
SWIDTH 667 0
DWIDTH 12 0
BBX 10 13 1 0
BITMAP
0f00
1b80
3180
3180
1b00
1e00
3cc0
66c0
c380
c300
c780
fcc0
78c0
ENDCHAR
STARTCHAR apostrophe
ENCODING 39
SWIDTH 222 0
DWIDTH 4 0
BBX 3 4 3 10
BITMAP
60
60
20
c0
ENDCHAR
STARTCHAR parenleft
ENCODING 40
SWIDTH 333 0
DWIDTH 6 0
BBX 8 18 1 -4
BITMAP
03
06
0c
18
30
30
60
60
c0
c0
c0
c0
c0
c0
c0
60
60
30
ENDCHAR
STARTCHAR parenright
ENCODING 41
SWIDTH 333 0
DWIDTH 6 0
BBX 8 18 -1 -4
BITMAP
0c
06
06
03
03
03
03
03
03
03
06
06
0c
0c
18
30
60
c0
ENDCHAR
STARTCHAR asterisk
ENCODING 42
SWIDTH 389 0
DWIDTH 8 0
BBX 5 6 3 8
BITMAP
20
a8
70
60
d0
90
ENDCHAR
STARTCHAR plus
ENCODING 43
SWIDTH 584 0
DWIDTH 10 0
BBX 8 10 2 0
BITMAP
0c
0c
0c
18
ff
ff
18
30
30
30
ENDCHAR
STARTCHAR comma
ENCODING 44
SWIDTH 278 0
DWIDTH 5 0
BBX 3 5 1 -3
BITMAP
60
60
20
40
80
ENDCHAR
STARTCHAR minus
ENCODING 45
SWIDTH 584 0
DWIDTH 11 0
BBX 9 2 2 4
BITMAP
ff80
ff80
ENDCHAR
STARTCHAR period
ENCODING 46
SWIDTH 278 0
DWIDTH 5 0
BBX 2 2 2 0
BITMAP
c0
c0
ENDCHAR
STARTCHAR slash
ENCODING 47
SWIDTH 278 0
DWIDTH 5 0
BBX 8 14 0 0
BITMAP
03
03
06
04
0c
0c
18
10
30
30
60
40
c0
c0
ENDCHAR
STARTCHAR zero
ENCODING 48
SWIDTH 556 0
DWIDTH 10 0
BBX 9 13 2 0
BITMAP
0f00
3f80
3180
6180
6180
6180
c180
c300
c300
c300
c600
fe00
7800
ENDCHAR
STARTCHAR one
ENCODING 49
SWIDTH 556 0
DWIDTH 10 0
BBX 5 13 5 0
BITMAP
18
78
f0
30
30
30
60
60
60
60
c0
c0
c0
ENDCHAR
STARTCHAR two
ENCODING 50
SWIDTH 556 0
DWIDTH 10 0
BBX 10 13 1 0
BITMAP
0f80
1fc0
38c0
30c0
01c0
0380
0f00
1c00
3800
6000
c000
ff00
ff00
ENDCHAR
STARTCHAR three
ENCODING 51
SWIDTH 556 0
DWIDTH 10 0
BBX 10 13 1 0
BITMAP
0f80
1fc0
30c0
30c0
01c0
0780
0700
0180
0180
c180
e380
7f00
3e00
ENDCHAR
STARTCHAR four
ENCODING 52
SWIDTH 556 0
DWIDTH 10 0
BBX 9 13 2 0
BITMAP
0180
0380
0700
0f00
1b00
3300
6600
c600
ff00
ff00
0c00
0c00
0c00
ENDCHAR
STARTCHAR five
ENCODING 53
SWIDTH 556 0
DWIDTH 10 0
BBX 10 13 1 0
BITMAP
0fc0
1fc0
1800
3000
3e00
7f00
6380
0180
0180
0180
c300
ff00
7c00
ENDCHAR
STARTCHAR six
ENCODING 54
SWIDTH 556 0
DWIDTH 10 0
BBX 10 13 1 0
BITMAP
0780
0fc0
18c0
3000
6000
6e00
ff00
e380
c180
c180
e300
7f00
3c00
ENDCHAR
STARTCHAR seven
ENCODING 55
SWIDTH 556 0
DWIDTH 10 0
BBX 10 13 2 0
BITMAP
7fc0
7fc0
0180
0300
0600
0c00
1800
3000
3000
6000
6000
c000
c000
ENDCHAR
STARTCHAR eight
ENCODING 56
SWIDTH 556 0
DWIDTH 10 0
BBX 9 13 2 0
BITMAP
0f00
3f80
3180
6180
6380
3f00
7600
e300
c300
c300
c700
fe00
7c00
ENDCHAR
STARTCHAR nine
ENCODING 57
SWIDTH 556 0
DWIDTH 10 0
BBX 10 13 1 0
BITMAP
0780
1fc0
18c0
30c0
30c0
31c0
3fc0
1f80
0180
0380
c700
fe00
7c00
ENDCHAR
STARTCHAR colon
ENCODING 58
SWIDTH 278 0
DWIDTH 5 0
BBX 4 10 1 0
BITMAP
30
30
00
00
00
00
00
00
c0
c0
ENDCHAR
STARTCHAR semicolon
ENCODING 59
SWIDTH 278 0
DWIDTH 5 0
BBX 5 13 0 -3
BITMAP
18
18
00
00
00
00
00
00
60
60
20
40
80
ENDCHAR
STARTCHAR less
ENCODING 60
SWIDTH 584 0
DWIDTH 11 0
BBX 8 7 2 1
BITMAP
07
1c
70
c0
70
1c
06
ENDCHAR
STARTCHAR equal
ENCODING 61
SWIDTH 584 0
DWIDTH 11 0
BBX 8 5 2 2
BITMAP
7f
7f
00
fe
fe
ENDCHAR
STARTCHAR greater
ENCODING 62
SWIDTH 584 0
DWIDTH 11 0
BBX 8 7 2 1
BITMAP
60
38
0e
03
0e
38
e0
ENDCHAR
STARTCHAR question
ENCODING 63
SWIDTH 556 0
DWIDTH 10 0
BBX 8 14 3 0
BITMAP
3e
7f
e3
c7
0e
1c
38
70
60
60
00
00
c0
c0
ENDCHAR
STARTCHAR at
ENCODING 64
SWIDTH 1015 0
DWIDTH 18 0
BBX 17 17 2 -3
BITMAP
01f800
07fe00
0e0700
180300
30ed80
63b980
671980
c63180
cc3300
cc6300
cce600
cdec00
c77800
600000
700000
3fe000
0fe000
ENDCHAR
STARTCHAR A
ENCODING 65
SWIDTH 667 0
DWIDTH 12 0
BBX 11 14 0 0
BITMAP
00c0
01c0
03c0
0360
0660
0660
0c60
1c60
1860
3fe0
7fe0
6060
c060
c060
ENDCHAR
STARTCHAR B
ENCODING 66
SWIDTH 667 0
DWIDTH 13 0
BBX 11 14 2 0
BITMAP
1fc0
1fe0
1860
3060
3060
30c0
3f80
7fc0
60e0
6060
6060
c0e0
ffc0
ff00
ENDCHAR
STARTCHAR C
ENCODING 67
SWIDTH 722 0
DWIDTH 13 0
BBX 12 14 2 0
BITMAP
03c0
0fe0
3c70
3030
6000
e000
c000
c000
c000
c060
e0e0
61c0
7f80
1e00
ENDCHAR
STARTCHAR D
ENCODING 68
SWIDTH 722 0
DWIDTH 13 0
BBX 13 14 1 0
BITMAP
1fe0
1ff0
1830
3018
3018
3018
3018
6018
6038
6030
6070
c0e0
ff80
ff00
ENDCHAR
STARTCHAR E
ENCODING 69
SWIDTH 667 0
DWIDTH 12 0
BBX 12 14 2 0
BITMAP
1ff0
1ff0
1800
3000
3000
3000
3fc0
7fc0
6000
6000
6000
c000
ff80
ff80
ENDCHAR
STARTCHAR F
ENCODING 70
SWIDTH 611 0
DWIDTH 11 0
BBX 12 14 2 0
BITMAP
1ff0
1ff0
1800
3000
3000
3000
3f80
7f80
6000
6000
6000
c000
c000
c000
ENDCHAR
STARTCHAR G
ENCODING 71
SWIDTH 778 0
DWIDTH 14 0
BBX 12 14 2 0
BITMAP
03e0
0ff0
1c30
3030
7000
6000
6000
c3f0
c3f0
c060
e060
60c0
7fc0
1ec0
ENDCHAR
STARTCHAR H
ENCODING 72
SWIDTH 722 0
DWIDTH 14 0
BBX 13 14 2 0
BITMAP
1818
1818
1818
3030
3030
3030
3ff0
7fe0
6060
6060
6060
c0c0
c0c0
c0c0
ENDCHAR
STARTCHAR I
ENCODING 73
SWIDTH 278 0
DWIDTH 6 0
BBX 5 14 2 0
BITMAP
18
18
18
30
30
30
30
60
60
60
60
c0
c0
c0
ENDCHAR
STARTCHAR J
ENCODING 74
SWIDTH 500 0
DWIDTH 9 0
BBX 10 14 0 0
BITMAP
00c0
00c0
00c0
0180
0180
0180
0180
0300
0300
0300
c300
c600
fe00
7c00
ENDCHAR
STARTCHAR K
ENCODING 75
SWIDTH 667 0
DWIDTH 13 0
BBX 13 14 1 0
BITMAP
1818
1830
18e0
31c0
3380
3700
3e00
7e00
7700
6380
61c0
c0e0
c070
c030
ENDCHAR
STARTCHAR L
ENCODING 76
SWIDTH 556 0
DWIDTH 10 0
BBX 7 14 2 0
BITMAP
18
18
18
30
30
30
30
60
60
60
60
c0
fe
fe
ENDCHAR
STARTCHAR M
ENCODING 77
SWIDTH 833 0
DWIDTH 15 0
BBX 16 14 1 0
BITMAP
1803
1807
1c0f
3c0e
361e
3636
3636
666c
66ec
66cc
638c
c398
c318
c318
ENDCHAR
STARTCHAR N
ENCODING 78
SWIDTH 722 0
DWIDTH 14 0
BBX 13 14 2 0
BITMAP
1818
1818
1c18
3c30
3630
3630
3630
6660
6360
6360
6360
c1c0
c1c0
c0c0
ENDCHAR
STARTCHAR O
ENCODING 79
SWIDTH 778 0
DWIDTH 15 0
BBX 14 14 2 0
BITMAP
03e0
0ff8
1c18
301c
700c
600c
600c
c018
c018
c038
e030
60e0
7fc0
1f00
ENDCHAR
STARTCHAR P
ENCODING 80
SWIDTH 667 0
DWIDTH 12 0
BBX 11 14 2 0
BITMAP
1fc0
1fe0
3860
3060
3060
30e0
7fc0
7f00
6000
6000
6000
c000
c000
c000
ENDCHAR
STARTCHAR Q
ENCODING 81
SWIDTH 778 0
DWIDTH 15 0
BBX 14 15 2 -1
BITMAP
03e0
0ff8
1c18
301c
700c
600c
600c
c018
c018
c1b8
e1f0
60e0
7fe0
1f70
0030
ENDCHAR
STARTCHAR R
ENCODING 82
SWIDTH 722 0
DWIDTH 14 0
BBX 12 14 2 0
BITMAP
1fe0
1ff0
1830
3030
3030
3070
3fe0
7fc0
60e0
6060
6060
c0c0
c0c0
c0c0
ENDCHAR
STARTCHAR S
ENCODING 83
SWIDTH 667 0
DWIDTH 12 0
BBX 10 14 2 0
BITMAP
0f80
3fc0
70c0
60c0
6000
7c00
3f00
0780
01c0
00c0
c0c0
c180
ff80
7e00
ENDCHAR
STARTCHAR T
ENCODING 84
SWIDTH 611 0
DWIDTH 11 0
BBX 10 14 3 0
BITMAP
ffc0
ffc0
0c00
1800
1800
1800
1800
3000
3000
3000
3000
6000
6000
6000
ENDCHAR
STARTCHAR U
ENCODING 85
SWIDTH 722 0
DWIDTH 14 0
BBX 12 14 3 0
BITMAP
3030
3030
3030
6060
6060
6060
6060
c0c0
c0c0
c0c0
c1c0
e380
7f00
3e00
ENDCHAR
STARTCHAR V
ENCODING 86
SWIDTH 667 0
DWIDTH 12 0
BBX 10 14 4 0
BITMAP
c0c0
c0c0
c180
c180
c300
c300
c600
c600
cc00
cc00
d800
7800
7000
6000
ENDCHAR
STARTCHAR W
ENCODING 87
SWIDTH 944 0
DWIDTH 17 0
BBX 16 14 3 0
BITMAP
c183
c183
c386
c386
c6cc
c6cc
cccc
ccd8
d8d8
7878
7070
7070
6060
6060
ENDCHAR
STARTCHAR X
ENCODING 88
SWIDTH 667 0
DWIDTH 12 0
BBX 12 14 1 0
BITMAP
3030
3070
3860
18c0
0d80
0f80
0700
0f00
1f00
1980
3180
61c0
e0c0
c0c0
ENDCHAR
STARTCHAR Y
ENCODING 89
SWIDTH 667 0
DWIDTH 12 0
BBX 10 14 4 0
BITMAP
c0c0
c0c0
c180
c380
c300
6600
6e00
6c00
7800
3800
3000
6000
6000
6000
ENDCHAR
STARTCHAR Z
ENCODING 90
SWIDTH 611 0
DWIDTH 11 0
BBX 13 14 0 0
BITMAP
0ff8
0ff8
0030
0060
00c0
0180
0300
0600
0c00
1800
3000
6000
ffc0
ffc0
ENDCHAR
STARTCHAR bracketleft
ENCODING 91
SWIDTH 278 0
DWIDTH 5 0
BBX 8 18 0 -4
BITMAP
0f
0f
18
18
18
30
30
30
30
60
60
60
60
c0
c0
c0
f0
f0
ENDCHAR
STARTCHAR backslash
ENCODING 92
SWIDTH 278 0
DWIDTH 5 0
BBX 4 14 2 0
BITMAP
80
c0
c0
40
40
60
60
60
20
20
30
30
10
10
ENDCHAR
STARTCHAR bracketright
ENCODING 93
SWIDTH 278 0
DWIDTH 5 0
BBX 8 18 -1 -4
BITMAP
0f
0f
03
03
03
06
06
06
06
0c
0c
0c
0c
18
18
18
f0
f0
ENDCHAR
STARTCHAR asciicircum
ENCODING 94
SWIDTH 469 0
DWIDTH 10 0
BBX 8 8 2 5
BITMAP
0c
1c
36
36
66
63
c3
c3
ENDCHAR
STARTCHAR underscore
ENCODING 95
SWIDTH 556 0
DWIDTH 10 0
BBX 11 2 -1 -4
BITMAP
ffe0
ffe0
ENDCHAR
STARTCHAR grave
ENCODING 96
SWIDTH 333 0
DWIDTH 4 0
BBX 4 3 3 11
BITMAP
c0
60
30
ENDCHAR
STARTCHAR a
ENCODING 97
SWIDTH 556 0
DWIDTH 10 0
BBX 9 10 1 0
BITMAP
0f00
3f80
3180
0780
3f00
7300
e300
c600
fe00
7600
ENDCHAR
STARTCHAR b
ENCODING 98
SWIDTH 556 0
DWIDTH 11 0
BBX 10 14 1 0
BITMAP
1800
1800
1800
3000
3780
3fc0
38c0
70c0
60c0
60c0
6180
e380
ff00
de00
ENDCHAR
STARTCHAR c
ENCODING 99
SWIDTH 500 0
DWIDTH 9 0
BBX 9 10 1 0
BITMAP
0f00
3f80
7180
6000
c000
c000
c000
c600
fe00
7800
ENDCHAR
STARTCHAR d
ENCODING 100
SWIDTH 556 0
DWIDTH 11 0
BBX 11 14 1 0
BITMAP
0060
0060
0060
00c0
1ec0
3fc0
71c0
6180
c180
c180
c380
c700
ff00
7b00
ENDCHAR
STARTCHAR e
ENCODING 101
SWIDTH 556 0
DWIDTH 9 0
BBX 9 10 1 0
BITMAP
0f00
3f80
7180
6180
ff00
c000
c000
c600
fe00
7800
ENDCHAR
STARTCHAR f
ENCODING 102
SWIDTH 278 0
DWIDTH 5 0
BBX 7 14 1 0
BITMAP
0e
1e
18
30
fc
fc
30
60
60
60
60
c0
c0
c0
ENDCHAR
STARTCHAR g
ENCODING 103
SWIDTH 556 0
DWIDTH 10 0
BBX 11 14 0 -4
BITMAP
0760
1fe0
3860
30c0
60c0
60c0
61c0
6380
7f80
3d80
0300
c700
fe00
3800
ENDCHAR
STARTCHAR h
ENCODING 104
SWIDTH 556 0
DWIDTH 11 0
BBX 10 14 1 0
BITMAP
1800
1800
1800
3000
3380
3fc0
38c0
70c0
6180
6180
6180
c300
c300
c300
ENDCHAR
STARTCHAR i
ENCODING 105
SWIDTH 222 0
DWIDTH 4 0
BBX 5 14 1 0
BITMAP
18
18
00
00
30
30
30
60
60
60
60
c0
c0
c0
ENDCHAR
STARTCHAR j
ENCODING 106
SWIDTH 222 0
DWIDTH 4 0
BBX 8 18 -2 -4
BITMAP
03
03
00
00
06
06
06
0c
0c
0c
0c
18
18
18
18
30
f0
e0
ENDCHAR
STARTCHAR k
ENCODING 107
SWIDTH 500 0
DWIDTH 9 0
BBX 9 14 1 0
BITMAP
1800
1800
1800
3000
3180
3300
3600
3c00
7c00
6600
6600
c600
c300
c300
ENDCHAR
STARTCHAR l
ENCODING 108
SWIDTH 222 0
DWIDTH 4 0
BBX 5 14 1 0
BITMAP
18
18
18
30
30
30
30
60
60
60
60
c0
c0
c0
ENDCHAR
STARTCHAR m
ENCODING 109
SWIDTH 833 0
DWIDTH 14 0
BBX 14 10 1 0
BITMAP
3318
37bc
39cc
6318
6318
6318
6318
c630
c630
c630
ENDCHAR
STARTCHAR n
ENCODING 110
SWIDTH 556 0
DWIDTH 11 0
BBX 10 10 1 0
BITMAP
3380
37c0
38c0
70c0
6180
6180
6180
c300
c300
c300
ENDCHAR
STARTCHAR o
ENCODING 111
SWIDTH 556 0
DWIDTH 10 0
BBX 9 10 1 0
BITMAP
0f00
3f80
7180
6180
c180
c180
c300
c700
fe00
7800
ENDCHAR
STARTCHAR p
ENCODING 112
SWIDTH 556 0
DWIDTH 11 0
BBX 11 14 0 -4
BITMAP
1bc0
1fe0
1c60
3860
3060
3060
30c0
71c0
7f80
6f00
6000
c000
c000
c000
ENDCHAR
STARTCHAR q
ENCODING 113
SWIDTH 556 0
DWIDTH 10 0
BBX 10 14 1 -4
BITMAP
1ec0
3fc0
71c0
6180
c180
c180
c380
c700
ff00
7b00
0300
0600
0600
0600
ENDCHAR
STARTCHAR r
ENCODING 114
SWIDTH 333 0
DWIDTH 7 0
BBX 7 10 1 0
BITMAP
36
3e
38
60
60
60
60
c0
c0
c0
ENDCHAR
STARTCHAR s
ENCODING 115
SWIDTH 500 0
DWIDTH 9 0
BBX 9 10 1 0
BITMAP
0f00
3f80
7180
6000
3c00
1f00
0300
c300
fe00
7c00
ENDCHAR
STARTCHAR t
ENCODING 116
SWIDTH 278 0
DWIDTH 5 0
BBX 6 13 1 0
BITMAP
18
18
30
fc
fc
30
60
60
60
c0
c0
e0
60
ENDCHAR
STARTCHAR u
ENCODING 117
SWIDTH 556 0
DWIDTH 10 0
BBX 10 10 1 0
BITMAP
30c0
30c0
30c0
6180
6180
6180
c380
c700
fb00
7300
ENDCHAR
STARTCHAR v
ENCODING 118
SWIDTH 500 0
DWIDTH 9 0
BBX 8 10 2 0
BITMAP
c3
c3
c7
c6
ce
cc
d8
f8
70
60
ENDCHAR
STARTCHAR w
ENCODING 119
SWIDTH 722 0
DWIDTH 13 0
BBX 12 10 2 0
BITMAP
c630
c630
c660
ce60
ce60
dec0
d6c0
7380
6300
6300
ENDCHAR
STARTCHAR x
ENCODING 120
SWIDTH 500 0
DWIDTH 10 0
BBX 10 10 1 0
BITMAP
30c0
30c0
1980
1b00
0e00
1c00
3e00
6600
c300
c300
ENDCHAR
STARTCHAR y
ENCODING 121
SWIDTH 500 0
DWIDTH 10 0
BBX 10 14 0 -4
BITMAP
30c0
30c0
30c0
3180
3180
3300
1b00
1e00
0c00
1800
1800
3000
e000
c000
ENDCHAR
STARTCHAR z
ENCODING 122
SWIDTH 500 0
DWIDTH 9 0
BBX 9 10 1 0
BITMAP
3f80
3f80
0300
0600
0c00
1800
3000
6000
fe00
fe00
ENDCHAR
STARTCHAR braceleft
ENCODING 123
SWIDTH 334 0
DWIDTH 6 0
BBX 8 18 1 -4
BITMAP
07
0c
18
18
18
18
30
60
c0
60
60
60
c0
c0
c0
c0
c0
70
ENDCHAR
STARTCHAR bar
ENCODING 124
SWIDTH 260 0
DWIDTH 4 0
BBX 6 18 0 -4
BITMAP
0c
0c
0c
18
18
18
18
30
30
30
30
60
60
60
60
c0
c0
c0
ENDCHAR
STARTCHAR braceright
ENCODING 125
SWIDTH 334 0
DWIDTH 7 0
BBX 8 18 0 -4
BITMAP
1c
06
06
06
06
0c
0c
06
03
06
0c
18
18
18
18
18
30
e0
ENDCHAR
STARTCHAR asciitilde
ENCODING 126
SWIDTH 584 0
DWIDTH 10 0
BBX 8 3 2 4
BITMAP
73
ff
ce
ENDCHAR
STARTCHAR nobreakspace
ENCODING 160
SWIDTH 278 0
DWIDTH 5 0
BBX 1 1 0 0
BITMAP
00
ENDCHAR
STARTCHAR Aogonek
ENCODING 161
SWIDTH 667 0
DWIDTH 12 0
BBX 11 19 0 -5
BITMAP
00c0
01c0
03c0
0360
0660
0660
0c60
1c60
1860
3fe0
7fe0
6060
c060
c060
0300
0e00
1800
1800
0e00
ENDCHAR
STARTCHAR breve
ENCODING 162
SWIDTH 333 0
DWIDTH 6 0
BBX 5 3 3 11
BITMAP
88
d8
70
ENDCHAR
STARTCHAR Lstroke
ENCODING 163
SWIDTH 556 0
DWIDTH 10 0
BBX 7 14 2 0
BITMAP
18
18
18
30
3c
38
30
60
e0
60
60
c0
fe
fe
ENDCHAR
STARTCHAR currency
ENCODING 164
SWIDTH 556 0
DWIDTH 11 0
BBX 9 7 2 3
BITMAP
6180
7f80
3300
6200
6600
ff00
c300
ENDCHAR
STARTCHAR Lcaron
ENCODING 165
SWIDTH 640 0
DWIDTH 12 0
BBX 9 15 2 0
BITMAP
0180
1980
1880
1b00
3000
3000
3000
3000
6000
6000
6000
6000
c000
fe00
fe00
ENDCHAR
STARTCHAR Sacute
ENCODING 166
SWIDTH 667 0
DWIDTH 12 0
BBX 10 18 2 0
BITMAP
0180
0300
0600
0000
0f80
3fc0
70c0
60c0
6000
7c00
3f00
0780
01c0
00c0
c0c0
c180
ff80
7e00
ENDCHAR
STARTCHAR section
ENCODING 167
SWIDTH 556 0
DWIDTH 10 0
BBX 11 18 0 -4
BITMAP
07c0
0fe0
1c60
1860
1e00
0f00
1b80
31c0
30c0
30c0
38c0
1d80
0f00
c700
c300
e700
7e00
3c00
ENDCHAR
STARTCHAR diaeresis
ENCODING 168
SWIDTH 333 0
DWIDTH 6 0
BBX 5 2 3 11
BITMAP
d8
d8
ENDCHAR
STARTCHAR Scaron
ENCODING 169
SWIDTH 667 0
DWIDTH 12 0
BBX 10 18 2 0
BITMAP
1980
0f00
0600
0000
0f80
3fc0
70c0
60c0
6000
7c00
3f00
0780
01c0
00c0
c0c0
c180
ff80
7e00
ENDCHAR
STARTCHAR Scedilla
ENCODING 170
SWIDTH 667 0
DWIDTH 12 0
BBX 10 20 2 -6
BITMAP
0f80
3fc0
70c0
60c0
6000
7c00
3f00
0780
01c0
00c0
c0c0
c180
ff80
7e00
0400
0c00
0600
0600
3600
1c00
ENDCHAR
STARTCHAR Tcaron
ENCODING 171
SWIDTH 611 0
DWIDTH 11 0
BBX 10 18 3 0
BITMAP
1980
0f00
0600
0000
ffc0
ffc0
0c00
1800
1800
1800
1800
3000
3000
3000
3000
6000
6000
6000
ENDCHAR
STARTCHAR Zacute
ENCODING 172
SWIDTH 611 0
DWIDTH 11 0
BBX 13 18 0 0
BITMAP
0030
0060
00c0
0000
0ff8
0ff8
0030
0060
00c0
0180
0300
0600
0c00
1800
3000
6000
ffc0
ffc0
ENDCHAR
STARTCHAR hyphen
ENCODING 173
SWIDTH 333 0
DWIDTH 7 0
BBX 6 2 2 4
BITMAP
fc
fc
ENDCHAR
STARTCHAR Zcaron
ENCODING 174
SWIDTH 611 0
DWIDTH 11 0
BBX 13 18 0 0
BITMAP
0330
01e0
00c0
0000
0ff8
0ff8
0030
0060
00c0
0180
0300
0600
0c00
1800
3000
6000
ffc0
ffc0
ENDCHAR
STARTCHAR Zabovedot
ENCODING 175
SWIDTH 611 0
DWIDTH 11 0
BBX 13 17 0 0
BITMAP
00c0
00c0
0000
0ff8
0ff8
0030
0060
00c0
0180
0300
0600
0c00
1800
3000
6000
ffc0
ffc0
ENDCHAR
STARTCHAR degree
ENCODING 176
SWIDTH 400 0
DWIDTH 7 0
BBX 6 5 2 8
BITMAP
78
cc
cc
cc
78
ENDCHAR
STARTCHAR aogonek
ENCODING 177
SWIDTH 556 0
DWIDTH 10 0
BBX 9 15 1 -5
BITMAP
0f00
3f80
3180
0780
3f00
7300
e300
c600
fe00
7600
0600
1c00
3000
3000
1c00
ENDCHAR
STARTCHAR ogonek
ENCODING 178
SWIDTH 333 0
DWIDTH 6 0
BBX 5 5 1 -5
BITMAP
18
70
c0
c0
70
ENDCHAR
STARTCHAR lstroke
ENCODING 179
SWIDTH 222 0
DWIDTH 4 0
BBX 5 14 1 0
BITMAP
18
18
18
30
30
38
70
e0
60
60
60
c0
c0
c0
ENDCHAR
STARTCHAR acute
ENCODING 180
SWIDTH 333 0
DWIDTH 4 0
BBX 4 3 3 11
BITMAP
30
60
c0
ENDCHAR
STARTCHAR lcaron
ENCODING 181
SWIDTH 426 0
DWIDTH 8 0
BBX 9 15 1 0
BITMAP
0180
1980
1880
1b00
3000
3000
3000
3000
6000
6000
6000
6000
c000
c000
c000
ENDCHAR
STARTCHAR sacute
ENCODING 182
SWIDTH 500 0
DWIDTH 9 0
BBX 9 14 1 0
BITMAP
0180
0300
0600
0000
0f00
3f80
7180
6000
3c00
1f00
0300
c300
fe00
7c00
ENDCHAR
STARTCHAR caron
ENCODING 183
SWIDTH 333 0
DWIDTH 6 0
BBX 6 3 3 11
BITMAP
cc
78
30
ENDCHAR
STARTCHAR cedilla
ENCODING 184
SWIDTH 333 0
DWIDTH 5 0
BBX 5 6 -1 -5
BITMAP
10
30
18
18
d8
70
ENDCHAR
STARTCHAR scaron
ENCODING 185
SWIDTH 500 0
DWIDTH 9 0
BBX 9 14 1 0
BITMAP
1980
0f00
0600
0000
0f00
3f80
7180
6000
3c00
1f00
0300
c300
fe00
7c00
ENDCHAR
STARTCHAR scedilla
ENCODING 186
SWIDTH 500 0
DWIDTH 9 0
BBX 9 16 1 -6
BITMAP
0f00
3f80
7180
6000
3c00
1f00
0300
c300
fe00
7c00
0400
0c00
0600
0600
3600
1c00
ENDCHAR
STARTCHAR tcaron
ENCODING 187
SWIDTH 426 0
DWIDTH 8 0
BBX 9 15 1 0
BITMAP
0180
0180
1880
1b00
3000
fc00
fc00
3000
6000
6000
6000
c000
c000
e000
6000
ENDCHAR
STARTCHAR zacute
ENCODING 188
SWIDTH 500 0
DWIDTH 9 0
BBX 9 14 1 0
BITMAP
0180
0300
0600
0000
3f80
3f80
0300
0600
0c00
1800
3000
6000
fe00
fe00
ENDCHAR
STARTCHAR doubleacute
ENCODING 189
SWIDTH 333 0
DWIDTH 5 0
BBX 7 3 2 11
BITMAP
36
6c
d8
ENDCHAR
STARTCHAR zcaron
ENCODING 190
SWIDTH 500 0
DWIDTH 9 0
BBX 9 14 1 0
BITMAP
1980
0f00
0600
0000
3f80
3f80
0300
0600
0c00
1800
3000
6000
fe00
fe00
ENDCHAR
STARTCHAR zabovedot
ENCODING 191
SWIDTH 500 0
DWIDTH 9 0
BBX 9 13 1 0
BITMAP
0600
0600
0000
3f80
3f80
0300
0600
0c00
1800
3000
6000
fe00
fe00
ENDCHAR
STARTCHAR Racute
ENCODING 192
SWIDTH 722 0
DWIDTH 14 0
BBX 12 18 2 0
BITMAP
0060
00c0
0180
0000
1fe0
1ff0
1830
3030
3030
3070
3fe0
7fc0
60e0
6060
6060
c0c0
c0c0
c0c0
ENDCHAR
STARTCHAR Aacute
ENCODING 193
SWIDTH 667 0
DWIDTH 12 0
BBX 11 17 0 0
BITMAP
0060
00c0
0000
00c0
01c0
03c0
0360
0660
0660
0c60
1c60
1860
3fe0
7fe0
6060
c060
c060
ENDCHAR
STARTCHAR Acircumflex
ENCODING 194
SWIDTH 667 0
DWIDTH 12 0
BBX 12 17 0 0
BITMAP
00e0
01b0
0000
00c0
01c0
03c0
0360
0660
0660
0c60
1c60
1860
3fe0
7fe0
6060
c060
c060
ENDCHAR
STARTCHAR Abreve
ENCODING 195
SWIDTH 667 0
DWIDTH 12 0
BBX 11 18 0 0
BITMAP
0220
0360
01c0
0000
00c0
01c0
03c0
0360
0660
0660
0c60
1c60
1860
3fe0
7fe0
6060
c060
c060
ENDCHAR
STARTCHAR Adiaeresis
ENCODING 196
SWIDTH 667 0
DWIDTH 12 0
BBX 12 17 0 0
BITMAP
0330
0330
0000
01c0
01c0
03c0
0360
0660
0660
0c60
1c60
1860
3fe0
7fe0
6060
c060
c060
ENDCHAR
STARTCHAR Lacute
ENCODING 197
SWIDTH 556 0
DWIDTH 10 0
BBX 8 18 2 0
BITMAP
03
06
0c
00
18
18
18
30
30
30
30
60
60
60
60
c0
fe
fe
ENDCHAR
STARTCHAR Cacute
ENCODING 198
SWIDTH 722 0
DWIDTH 13 0
BBX 12 18 2 0
BITMAP
0060
00c0
0180
0000
03c0
0fe0
3c70
3030
6000
e000
c000
c000
c000
c060
e0e0
61c0
7f80
1e00
ENDCHAR
STARTCHAR Ccedilla
ENCODING 199
SWIDTH 722 0
DWIDTH 13 0
BBX 12 19 2 -5
BITMAP
03c0
0fe0
3c70
3030
6000
e000
c000
c000
c000
c060
e0e0
61c0
7f80
3e00
1000
3000
1800
d800
7000
ENDCHAR
STARTCHAR Ccaron
ENCODING 200
SWIDTH 722 0
DWIDTH 13 0
BBX 12 18 2 0
BITMAP
0660
03c0
0180
0000
03c0
0fe0
3c70
3030
6000
e000
c000
c000
c000
c060
e0e0
61c0
7f80
1e00
ENDCHAR
STARTCHAR Eacute
ENCODING 201
SWIDTH 667 0
DWIDTH 12 0
BBX 12 17 2 0
BITMAP
00c0
0180
0000
1ff0
1ff0
1800
3000
3000
3000
3fc0
7fc0
6000
6000
6000
c000
ff80
ff80
ENDCHAR
STARTCHAR Eogonek
ENCODING 202
SWIDTH 667 0
DWIDTH 12 0
BBX 12 19 2 -5
BITMAP
1ff0
1ff0
1800
3000
3000
3000
3fc0
7fc0
6000
6000
6000
c000
ff80
ff80
0300
0e00
1800
1800
0e00
ENDCHAR
STARTCHAR Ediaeresis
ENCODING 203
SWIDTH 667 0
DWIDTH 12 0
BBX 12 17 2 0
BITMAP
0660
0660
0000
1ff0
1ff0
1800
3000
3000
3000
3fc0
7fc0
6000
6000
6000
c000
ff80
ff80
ENDCHAR
STARTCHAR Ecaron
ENCODING 204
SWIDTH 667 0
DWIDTH 12 0
BBX 12 18 2 0
BITMAP
0660
03c0
0180
0000
1ff0
1ff0
1800
3000
3000
3000
3fc0
7fc0
6000
6000
6000
c000
ff80
ff80
ENDCHAR
STARTCHAR Iacute
ENCODING 205
SWIDTH 278 0
DWIDTH 6 0
BBX 6 17 2 0
BITMAP
0c
18
00
18
18
18
30
30
30
30
60
60
60
60
c0
c0
c0
ENDCHAR
STARTCHAR Icircumflex
ENCODING 206
SWIDTH 278 0
DWIDTH 6 0
BBX 7 17 2 0
BITMAP
1c
36
00
18
18
18
30
30
30
30
60
60
60
60
c0
c0
c0
ENDCHAR
STARTCHAR Dcaron
ENCODING 207
SWIDTH 722 0
DWIDTH 13 0
BBX 13 18 1 0
BITMAP
0660
03c0
0180
0000
1fe0
1ff0
1830
3018
3018
3018
3018
6018
6038
6030
6070
c0e0
ff80
ff00
ENDCHAR
STARTCHAR Dstroke
ENCODING 208
SWIDTH 722 0
DWIDTH 13 0
BBX 13 14 1 0
BITMAP
1fe0
1ff0
1830
3018
3018
3018
fc18
fc38
6030
6070
60e0
c1c0
ff80
ff00
ENDCHAR
STARTCHAR Nacute
ENCODING 209
SWIDTH 722 0
DWIDTH 14 0
BBX 13 18 2 0
BITMAP
0030
0060
00c0
0000
1818
1818
1c18
3c30
3630
3630
3630
6660
6360
6360
6360
c1c0
c1c0
c0c0
ENDCHAR
STARTCHAR Ncaron
ENCODING 210
SWIDTH 722 0
DWIDTH 14 0
BBX 13 18 2 0
BITMAP
0330
01e0
00c0
0000
1818
1818
1c18
3c30
3630
3630
3630
6660
6360
6360
6360
c1c0
c1c0
c0c0
ENDCHAR
STARTCHAR Oacute
ENCODING 211
SWIDTH 778 0
DWIDTH 15 0
BBX 14 17 2 0
BITMAP
0060
00c0
0000
03e0
0ff8
1c18
301c
700c
600c
600c
c018
c018
c038
e030
60e0
7fc0
1f00
ENDCHAR
STARTCHAR Ocircumflex
ENCODING 212
SWIDTH 778 0
DWIDTH 15 0
BBX 14 17 2 0
BITMAP
01c0
0360
0000
03e0
0ff8
1c18
301c
700c
600c
600c
c018
c018
c038
e030
60e0
7fc0
1f00
ENDCHAR
STARTCHAR Odoubleacute
ENCODING 213
SWIDTH 778 0
DWIDTH 15 0
BBX 14 18 2 0
BITMAP
00d8
01b0
0360
0000
03e0
0ff8
1c18
301c
700c
600c
600c
c018
c018
c038
e030
60e0
7fc0
1f00
ENDCHAR
STARTCHAR Odiaeresis
ENCODING 214
SWIDTH 778 0
DWIDTH 15 0
BBX 14 17 2 0
BITMAP
0330
0330
0000
03e0
0ff8
1c18
301c
700c
600c
600c
c018
c018
c038
e030
60e0
7fc0
1f00
ENDCHAR
STARTCHAR multiply
ENCODING 215
SWIDTH 584 0
DWIDTH 10 0
BBX 10 10 1 0
BITMAP
4040
60c0
3180
1b00
0e00
1c00
3600
6300
c180
8080
ENDCHAR
STARTCHAR Rcaron
ENCODING 216
SWIDTH 722 0
DWIDTH 14 0
BBX 12 18 2 0
BITMAP
0660
03c0
0180
0000
1fe0
1ff0
1830
3030
3030
3070
3fe0
7fc0
60e0
6060
6060
c0c0
c0c0
c0c0
ENDCHAR
STARTCHAR Uring
ENCODING 217
SWIDTH 722 0
DWIDTH 14 0
BBX 12 19 3 0
BITMAP
01c0
0240
0240
0380
0000
3030
3030
3030
6060
6060
6060
6060
c0c0
c0c0
c0c0
c1c0
e380
7f00
3e00
ENDCHAR
STARTCHAR Uacute
ENCODING 218
SWIDTH 722 0
DWIDTH 14 0
BBX 12 17 3 0
BITMAP
0180
0300
0000
3030
3030
3030
6060
6060
6060
6060
c0c0
c0c0
c0c0
c1c0
e380
7f00
3e00
ENDCHAR
STARTCHAR Udoubleacute
ENCODING 219
SWIDTH 722 0
DWIDTH 14 0
BBX 12 18 3 0
BITMAP
01b0
0360
06c0
0000
3030
3030
3030
6060
6060
6060
6060
c0c0
c0c0
c0c0
c1c0
e380
7f00
3e00
ENDCHAR
STARTCHAR Udiaeresis
ENCODING 220
SWIDTH 722 0
DWIDTH 14 0
BBX 12 17 3 0
BITMAP
0cc0
0cc0
0000
3030
3030
3030
6060
6060
6060
6060
c0c0
c0c0
c0c0
c1c0
e380
7f00
3e00
ENDCHAR
STARTCHAR Yacute
ENCODING 221
SWIDTH 667 0
DWIDTH 12 0
BBX 10 17 4 0
BITMAP
0600
0c00
0000
c0c0
c0c0
c180
c380
c300
6600
6e00
6c00
7800
3800
3000
6000
6000
6000
ENDCHAR
STARTCHAR Tcedilla
ENCODING 222
SWIDTH 611 0
DWIDTH 11 0
BBX 10 20 3 -6
BITMAP
ffc0
ffc0
0c00
1800
1800
1800
1800
3000
3000
3000
3000
6000
6000
6000
0400
0c00
0600
0600
3600
1c00
ENDCHAR
STARTCHAR ssharp
ENCODING 223
SWIDTH 611 0
DWIDTH 10 0
BBX 9 14 1 0
BITMAP
0700
0f80
1980
3180
3180
3300
3600
6700
6180
6180
6180
c300
cf00
ce00
ENDCHAR
STARTCHAR racute
ENCODING 224
SWIDTH 333 0
DWIDTH 7 0
BBX 8 14 1 0
BITMAP
03
06
0c
00
36
3e
38
60
60
60
60
c0
c0
c0
ENDCHAR
STARTCHAR aacute
ENCODING 225
SWIDTH 556 0
DWIDTH 10 0
BBX 9 14 1 0
BITMAP
0180
0300
0600
0000
0f00
3f80
3180
0780
3f00
7300
e300
c600
fe00
7600
ENDCHAR
STARTCHAR acircumflex
ENCODING 226
SWIDTH 556 0
DWIDTH 10 0
BBX 9 14 1 0
BITMAP
0600
0f00
1980
0000
0f00
3f80
3180
0780
3f00
7300
e300
c600
fe00
7600
ENDCHAR
STARTCHAR abreve
ENCODING 227
SWIDTH 556 0
DWIDTH 10 0
BBX 9 14 1 0
BITMAP
1100
1b00
0e00
0000
0f00
3f80
3180
0780
3f00
7300
e300
c600
fe00
7600
ENDCHAR
STARTCHAR adiaeresis
ENCODING 228
SWIDTH 556 0
DWIDTH 10 0
BBX 9 13 1 0
BITMAP
0d80
0d80
0000
0f00
3f80
3180
0780
3f00
7300
e300
c600
fe00
7600
ENDCHAR
STARTCHAR lacute
ENCODING 229
SWIDTH 222 0
DWIDTH 4 0
BBX 8 18 1 0
BITMAP
03
06
0c
00
18
18
18
30
30
30
30
60
60
60
60
c0
c0
c0
ENDCHAR
STARTCHAR cacute
ENCODING 230
SWIDTH 500 0
DWIDTH 9 0
BBX 9 14 1 0
BITMAP
0180
0300
0600
0000
0f00
3f80
7180
6000
c000
c000
c000
c600
fe00
7800
ENDCHAR
STARTCHAR ccedilla
ENCODING 231
SWIDTH 500 0
DWIDTH 9 0
BBX 10 15 0 -5
BITMAP
0780
1fc0
38c0
3000
6000
6000
6000
6300
7f00
3e00
1000
3000
1800
d800
7000
ENDCHAR
STARTCHAR ccaron
ENCODING 232
SWIDTH 500 0
DWIDTH 9 0
BBX 9 14 1 0
BITMAP
1980
0f00
0600
0000
0f00
3f80
7180
6000
c000
c000
c000
c600
fe00
7800
ENDCHAR
STARTCHAR eacute
ENCODING 233
SWIDTH 556 0
DWIDTH 9 0
BBX 9 14 1 0
BITMAP
0180
0300
0600
0000
0f00
3f80
7180
6180
ff00
c000
c000
c600
fe00
7800
ENDCHAR
STARTCHAR eogonek
ENCODING 234
SWIDTH 556 0
DWIDTH 9 0
BBX 9 15 1 -5
BITMAP
0f00
3f80
7180
6180
ff00
c000
c000
c600
fe00
7800
0600
1c00
3000
3000
1c00
ENDCHAR
STARTCHAR ediaeresis
ENCODING 235
SWIDTH 556 0
DWIDTH 9 0
BBX 9 13 1 0
BITMAP
1b00
1b00
0000
0f00
3f80
7180
6180
ff00
c000
c000
c600
fe00
7800
ENDCHAR
STARTCHAR ecaron
ENCODING 236
SWIDTH 556 0
DWIDTH 9 0
BBX 9 14 1 0
BITMAP
1980
0f00
0600
0000
0f00
3f80
7180
6180
ff00
c000
c000
c600
fe00
7800
ENDCHAR
STARTCHAR iacute
ENCODING 237
SWIDTH 278 0
DWIDTH 4 0
BBX 6 14 1 0
BITMAP
0c
18
30
00
30
30
30
60
60
60
60
c0
c0
c0
ENDCHAR
STARTCHAR icircumflex
ENCODING 238
SWIDTH 278 0
DWIDTH 4 0
BBX 6 14 1 0
BITMAP
30
78
cc
00
30
30
30
60
60
60
60
c0
c0
c0
ENDCHAR
STARTCHAR dcaron
ENCODING 239
SWIDTH 800 0
DWIDTH 15 0
BBX 15 15 1 0
BITMAP
0006
0066
0062
006c
00c0
1ec0
3fc0
71c0
6180
c180
c180
c380
c700
ff00
7b00
ENDCHAR
STARTCHAR dstroke
ENCODING 240
SWIDTH 746 0
DWIDTH 14 0
BBX 14 14 1 0
BITMAP
0060
03fc
0060
00c0
1ec0
3fc0
71c0
6180
c180
c180
c380
c700
ff00
7b00
ENDCHAR
STARTCHAR nacute
ENCODING 241
SWIDTH 556 0
DWIDTH 11 0
BBX 10 14 1 0
BITMAP
00c0
0180
0300
0000
3380
37c0
38c0
70c0
6180
6180
6180
c300
c300
c300
ENDCHAR
STARTCHAR ncaron
ENCODING 242
SWIDTH 556 0
DWIDTH 11 0
BBX 10 14 1 0
BITMAP
0cc0
0780
0300
0000
3380
37c0
38c0
70c0
6180
6180
6180
c300
c300
c300
ENDCHAR
STARTCHAR oacute
ENCODING 243
SWIDTH 556 0
DWIDTH 10 0
BBX 9 14 1 0
BITMAP
0180
0300
0600
0000
0f00
3f80
7180
6180
c180
c180
c300
c700
fe00
7800
ENDCHAR
STARTCHAR ocircumflex
ENCODING 244
SWIDTH 556 0
DWIDTH 10 0
BBX 9 14 1 0
BITMAP
0600
0f00
1980
0000
0f00
3f80
7180
6180
c180
c180
c300
c700
fe00
7800
ENDCHAR
STARTCHAR odoubleacute
ENCODING 245
SWIDTH 556 0
DWIDTH 10 0
BBX 10 14 1 0
BITMAP
06c0
0d80
1b00
0000
0f00
3f80
7180
6180
c180
c180
c300
c700
fe00
7800
ENDCHAR
STARTCHAR odiaeresis
ENCODING 246
SWIDTH 556 0
DWIDTH 10 0
BBX 9 13 1 0
BITMAP
0d80
0d80
0000
0f00
3f80
7180
6180
c180
c180
c300
c700
fe00
7800
ENDCHAR
STARTCHAR division
ENCODING 247
SWIDTH 584 0
DWIDTH 10 0
BBX 8 8 2 1
BITMAP
0c
0c
00
ff
ff
00
30
30
ENDCHAR
STARTCHAR rcaron
ENCODING 248
SWIDTH 333 0
DWIDTH 7 0
BBX 8 14 1 0
BITMAP
33
1e
0c
00
36
3e
38
60
60
60
60
c0
c0
c0
ENDCHAR
STARTCHAR uring
ENCODING 249
SWIDTH 556 0
DWIDTH 10 0
BBX 10 15 1 0
BITMAP
0380
0480
0480
0700
0000
30c0
30c0
30c0
6180
6180
6180
c380
c700
fb00
7300
ENDCHAR
STARTCHAR uacute
ENCODING 250
SWIDTH 556 0
DWIDTH 10 0
BBX 10 14 1 0
BITMAP
0180
0300
0600
0000
30c0
30c0
30c0
6180
6180
6180
c380
c700
fb00
7300
ENDCHAR
STARTCHAR udoubleacute
ENCODING 251
SWIDTH 556 0
DWIDTH 10 0
BBX 11 14 1 0
BITMAP
0360
06c0
0d80
0000
30c0
30c0
30c0
6180
6180
6180
c380
c700
fb00
7300
ENDCHAR
STARTCHAR udiaeresis
ENCODING 252
SWIDTH 556 0
DWIDTH 10 0
BBX 10 13 1 0
BITMAP
0d80
0d80
0000
30c0
30c0
30c0
6180
6180
6180
c380
c700
fb00
7300
ENDCHAR
STARTCHAR yacute
ENCODING 253
SWIDTH 500 0
DWIDTH 10 0
BBX 9 18 1 -4
BITMAP
0300
0600
0c00
0000
6180
6180
6180
6300
6300
6600
3600
3c00
1c00
1800
3000
6000
c000
8000
ENDCHAR
STARTCHAR tcedilla
ENCODING 254
SWIDTH 278 0
DWIDTH 5 0
BBX 6 19 1 -6
BITMAP
18
18
30
fc
fc
30
60
60
60
c0
c0
e0
60
10
30
18
18
d8
70
ENDCHAR
STARTCHAR abovedot
ENCODING 255
SWIDTH 333 0
DWIDTH 6 0
BBX 2 2 5 11
BITMAP
c0
c0
ENDCHAR
ENDFONT
